<?xml version="1.0" standalone="no"?>
<!DOCTYPE svg PUBLIC "-//W3C//DTD SVG 20010904//EN"
 "http://www.w3.org/TR/2001/REC-SVG-20010904/DTD/svg10.dtd">
<svg version="1.0" xmlns="http://www.w3.org/2000/svg"
 width="1800.000000pt" height="1800.000000pt" viewBox="0 0 1800.000000 1800.000000"
 preserveAspectRatio="xMidYMid meet">
<metadata>
Created by potrace 1.14, written by Peter Selinger 2001-2017
</metadata>
<g transform="translate(0.000000,1800.000000) scale(0.100000,-0.100000)"
fill="#000000" stroke="none">
<path d="M1600 17200 l0 -800 -800 0 -800 0 0 -8200 0 -8200 7885 0 7885 0 0
800 0 800 -7085 0 -7085 0 0 7400 0 7400 7400 0 7400 0 0 -8200 0 -8200 800 0
800 0 0 9000 0 9000 -8200 0 -8200 0 0 -800z"/>
<path d="M2260 14820 l0 -940 1010 0 1010 0 0 940 0 940 -1010 0 -1010 0 0
-940z"/>
<path d="M6080 9000 l0 -6760 1010 0 1010 0 0 6760 0 6760 -1010 0 -1010 0 0
-6760z"/>
<path d="M9900 9000 l0 -6760 1010 0 1010 0 0 6760 0 6760 -1010 0 -1010 0 0
-6760z"/>
<path d="M13750 9000 l0 -6760 1010 0 1010 0 0 6760 0 6760 -1010 0 -1010 0 0
-6760z"/>
<path d="M2260 7755 l0 -5515 1010 0 1010 0 0 5515 0 5515 -1010 0 -1010 0 0
-5515z"/>
</g>
</svg>
